# xmcd CD database file
#
# Track frame offsets:
#	150
#	14257
#	27535
#	39851
#	52859
#	68086
#	77473
#	89597
#	105871
#	125154
#	143128
#	159944
#	169934
#	180724
#	194729
#	209032
#	226558
#	240118
#	253081
#	264937
#	282235
#	296136
#
# Disc length: 4125 seconds
#
# Revision: 0
# Processed by: cddbd v1.5.1PL0 Copyright (c) Steve Scherf et al.
# Submitted via: CDex 1.51
#
DISCID=2c101b16
DTITLE=George Strait - Greatest Hits
DYEAR=2004
DGENRE=Country
TTITLE0=A Fathers Love
TTITLE1=Baby's Gotten Good At Goodbye
TTITLE2=Big Ball's In Cowtown (With Asleep At The Wheel) 
TTITLE3=Blame it on Mexico
TTITLE4=Carried Away
TTITLE5=Check Yes or No
TTITLE6=Fool Hearted Memory
TTITLE7=Heartbroke
TTITLE8=I Can Still Make Cheyenne
TTITLE9=I Hate Everything
TTITLE10=I've Come To Expect It From You
TTITLE11=It Ain't Cool to Be Crazy About
TTITLE12=Let's Fall To Pieces Together
TTITLE13=Marina Del Rey
TTITLE14=Ocean Front Property
TTITLE15=Run
TTITLE16=She'll Leave You With A Smile
TTITLE17=The Chair
TTITLE18=The Fireman
TTITLE19=You Had Me From Hello
TTITLE20=You Know Me Better Than That
TTITLE21=You Look So Good In Love
EXTD=YEAR: 2004
EXTT0=
EXTT1=
EXTT2=
EXTT3=
EXTT4=
EXTT5=
EXTT6=
EXTT7=
EXTT8=
EXTT9=
EXTT10=
EXTT11=
EXTT12=
EXTT13=
EXTT14=
EXTT15=
EXTT16=
EXTT17=
EXTT18=
EXTT19=
EXTT20=
EXTT21=
PLAYORDER=
